Coordinates
version=1
nRows=13
nColumns=34
inDegrees=yes

Units are S.I. units (second, meters, Newtons, ...)
If the header above contains a line with 'inDegrees', this indicates whether rotational values are in degrees (yes) or radians (no).

endheader
time	pelvis_tilt	pelvis_list	pelvis_rotation	pelvis_tx	pelvis_ty	pelvis_tz	hip_flexion_r	hip_adduction_r	hip_rotation_r	knee_angle_r	ankle_angle_r	subtalar_angle_r	mtp_angle_r	hip_flexion_l	hip_adduction_l	hip_rotation_l	knee_angle_l	ankle_angle_l	subtalar_angle_l	mtp_angle_l	lumbar_extension	lumbar_bending	lumbar_rotation	arm_flex_r	arm_add_r	arm_rot_r	elbow_flex_r	pro_sup_r	arm_flex_l	arm_add_l	arm_rot_l	elbow_flex_l	pro_sup_l
      0.00000000	     -3.11650331	     -1.08692783	     -5.11184091	      1.66663507	      0.87901746	     -0.02279354	      2.97441857	     -2.86754738	     -4.68448891	      5.65323416	      2.21332072	    -14.53409448	      0.00000000	      0.29863360	     -6.57389240	     -3.07928475	      3.92443070	      4.98009511	     -8.82126814	      0.00000000	     -6.83042023	      1.93716933	     -1.95322566	     12.94288082	     -8.75050179	     40.80920907	     80.96758044	     93.94431742	      5.65848175	     -7.85663216	     32.33892607	     71.64851793	     85.02668573
      0.01666670	     -4.40201963	     -0.99892025	     -4.91345970	      1.66804006	      0.87768051	     -0.02378098	      4.41589057	     -2.64834508	     -3.65166913	      5.89179069	      5.02681587	    -13.14902269	      0.00000000	      2.38110979	     -6.23183240	     -2.49326712	      3.95680213	      5.96502142	     -7.77168798	      0.00000000	     -4.60001428	      2.31544407	     -2.33529232	     12.24775569	     -8.43292416	     39.75890367	     79.59430842	     93.56989380	      4.81309170	     -8.27980507	     31.94344185	     71.71547310	     84.52296966
      0.03333330	     -4.45284018	     -0.42669032	     -4.96707569	      1.66751049	      0.87793880	     -0.02336812	      4.16558955	     -3.26205239	     -3.75913418	      5.02828088	      5.02363465	    -13.08596805	      0.00000000	      2.40870370	     -5.75168122	     -2.54143623	      3.59956226	      5.84193435	     -7.75633736	      0.00000000	     -4.52487258	      1.52994298	     -1.96498072	     12.21114767	     -8.39461781	     39.73984242	     79.20288824	     93.56320102	      5.18220893	     -8.92048514	     31.62368047	     71.55163007	     84.41651896
      0.05000000	     -3.78147471	     -0.10812188	     -4.95919901	      1.66689113	      0.87988418	     -0.02303539	      3.14191443	     -3.69152821	     -3.52079062	      4.37246237	      5.12329010	    -13.16764632	      0.00000000	      1.05843998	     -5.32867868	     -2.17758672	      2.48022522	      5.21488534	     -8.28876336	      0.00000000	     -5.09054540	      0.97889912	     -1.43882320	     12.26923122	     -8.17321533	     39.65739056	     78.11957189	     93.61710023	      5.75833313	     -9.22001988	     31.85080877	     71.09898204	     84.30734418
      0.06666670	     -3.21987175	     -0.03806911	     -4.84362119	      1.66637073	      0.88081655	     -0.02305373	      2.21527945	     -3.75014539	     -3.16895680	      3.74529344	      5.04598449	    -13.72891182	      0.00000000	      0.13628496	     -5.18003354	     -1.43981864	      1.86193964	      4.95425501	     -9.06885477	      0.00000000	     -5.75583501	      0.82697654	     -1.18603061	     12.44536530	     -8.29637117	     40.10634816	     78.42244815	     93.75315448	      6.32905734	     -9.43914576	     32.68381191	     70.87529497	     84.38453326
      0.08333330	     -2.81470593	      0.02774129	     -4.73994020	      1.66605450	      0.88087645	     -0.02299238	      1.61132348	     -3.78226547	     -2.71991399	      3.39176466	      5.03328369	    -14.43345128	      0.00000000	     -0.43527662	     -5.05708034	     -0.80085506	      1.56886889	      4.76915434	     -9.75699235	      0.00000000	     -6.22863357	      0.68630210	     -0.91462410	     12.60231087	     -8.49387170	     40.51660178	     79.07733651	     93.85890610	      6.80926467	     -9.59091218	     33.53081827	     70.85677931	     84.56181983
      0.10000000	     -2.58556032	      0.04113526	     -4.57327365	      1.66617787	      0.88053540	     -0.02290579	      1.17372115	     -3.77074492	     -2.30336155	      3.05441596	      5.02348316	    -14.91238432	      0.00000000	     -0.72480534	     -5.03166401	     -0.26498093	      1.46712046	      4.61159738	     -9.99666361	      0.00000000	     -6.39128513	      0.65833501	     -0.87246059	     12.65150618	     -8.62476415	     40.77270281	     79.64806575	     93.90597819	      7.13774756	     -9.60773420	     34.05770685	     70.80249699	     84.69856754
      0.11666670	     -2.55865957	      0.05581115	     -4.53510888	      1.66631741	      0.88031092	     -0.02251741	      1.10194937	     -3.75217470	     -2.25894797	      2.98271140	      5.03385508	    -14.97768357	      0.00000000	     -0.75953026	     -5.03042840	     -0.17191360	      1.45578649	      4.58126981	    -10.00673526	      0.00000000	     -6.34873571	      0.64219207	     -0.79595508	     12.78956310	     -8.52106329	     40.79353979	     79.77578550	     93.90853164	      7.21164554	     -9.57055769	     34.10430309	     70.80875405	     84.71145669
      0.13333330	     -2.55871938	      0.07131632	     -4.53178213	      1.66640439	      0.88056577	     -0.02220525	      1.10132976	     -3.73854504	     -2.25354570	      2.97555501	      5.03558877	    -14.98310086	      0.00000000	     -0.77157867	     -5.02857245	     -0.16258922	      1.46171006	      4.57700956	    -10.00605957	      0.00000000	     -6.35129445	      0.64320888	     -0.79864015	     12.78758058	     -8.52350725	     40.79699923	     79.78236156	     93.90872182	      7.21479713	     -9.57269488	     34.10711660	     70.80601584	     84.71215149
      0.15000000	     -2.56217890	      0.07471189	     -4.53222645	      1.66632311	      0.88072625	     -0.02230695	      1.09718454	     -3.73670129	     -2.25242094	      2.97585793	      5.03596579	    -14.98433569	      0.00000000	     -0.77391988	     -5.03018904	     -0.16016227	      1.46327382	      4.57561454	    -10.00546717	      0.00000000	     -6.35127858	      0.64290422	     -0.79860689	     12.78677335	     -8.52370914	     40.79795897	     79.78379222	     93.90876383	      7.21494107	     -9.57420621	     34.10737029	     70.80509278	     84.71223891
      0.16666670	     -1.49252047	     -0.06565304	     -4.28883455	      1.66609300	      0.88237342	     -0.02278085	     -0.59102453	     -3.59036627	     -1.25464489	      2.11963836	      3.86803946	    -17.24569471	      0.00000000	     -2.07909614	     -5.10875571	      1.06850160	      1.17820266	      3.50229571	    -11.25649720	      0.00000000	     -7.73576490	      0.68661386	     -0.52796166	     12.82127981	     -9.32410245	     41.57746743	     81.65570862	     93.85864867	      8.22788906	     -9.83432094	     35.27256496	     70.10623130	     84.92380037
      0.18333330	     -1.49123611	     -0.07438030	     -4.29429621	      1.66595591	      0.88296126	     -0.02342781	     -0.58710425	     -3.60221790	     -1.25424616	      2.11626347	      3.86680054	    -17.24954085	      0.00000000	     -2.08551208	     -5.11865364	      1.07687596	      1.18117670	      3.49529886	    -11.25133998	      0.00000000	     -7.73638699	      0.68498679	     -0.52848184	     12.81045628	     -9.32860616	     41.57798704	     81.65447164	     93.85822071	      8.22336079	     -9.84524469	     35.27335095	     70.10139009	     84.92404357
      0.20000000	     -1.46879120	     -0.08469317	     -4.37124982	      1.66597177	      0.88344155	     -0.02390993	     -0.61370265	     -3.60766305	     -1.25703226	      2.06505492	      3.83543361	    -17.30394566	      0.00000000	     -2.13151387	     -5.14002665	      1.23152553	      1.20747382	      3.35611633	    -11.14826812	      0.00000000	     -7.78413390	      0.70940644	     -0.52962613	     12.64326085	     -9.43442535	     41.59747116	     81.62058283	     93.85308482	      8.16356226	    -10.00871467	     35.26818752	     70.02138455	     84.92497508
